<?xml version="1.0" encoding="UTF-8"?>
<!DOCTYPE svg PUBLIC "-//W3C//DTD SVG 1.1//EN" "http://www.w3.org/Graphics/SVG/1.1/DTD/svg11.dtd">
<svg version="1.1" xmlns="http://www.w3.org/2000/svg" xmlns:xlink="http://www.w3.org/1999/xlink" x="0" y="0" width="364" height="364" viewBox="0, 0, 364, 364">
  <g id="Layer_1">
    <g>
      <path d="M336.425,182.855 C336.425,268.139 267.289,337.275 182.005,337.275 C96.721,337.275 27.585,268.139 27.585,182.855 C27.585,97.571 96.721,28.435 182.005,28.435 C267.289,28.435 336.425,97.571 336.425,182.855 z" fill-opacity="0" stroke="#FF4081" stroke-width="11"/>
      <path d="M92.365,94.505 C141.518,94.505 181.364,134.351 181.364,183.504 C181.364,232.657 141.518,272.503 92.365,272.503 C43.213,272.502 3.367,232.656 3.367,183.504 C3.367,134.352 43.213,94.506 92.365,94.505 z" fill-opacity="0" stroke="#FF4081" stroke-width="11"/>
      <path d="M271.645,94.505 C222.492,94.505 182.646,134.351 182.646,183.504 C182.646,232.657 222.492,272.503 271.645,272.503 C320.798,272.503 360.644,232.657 360.644,183.504 C360.644,134.351 320.798,94.505 271.645,94.505 z" fill-opacity="0" stroke="#FF4081" stroke-width="11"/>
      <path d="M303.905,216.635 C279.329,174.07 224.901,159.486 182.335,184.059 C139.77,208.635 125.186,263.062 149.759,305.629 C174.335,348.194 228.762,362.778 271.329,338.205 C313.894,313.629 328.478,259.201 303.905,216.635 z" fill-opacity="0" stroke="#FF4081" stroke-width="11"/>
      <path d="M214.255,61.375 C238.828,103.941 224.244,158.369 181.679,182.945 C139.112,207.518 84.685,192.934 60.109,150.369 C35.536,107.802 50.12,53.375 92.685,28.799 C135.251,4.226 189.679,18.81 214.255,61.375 z" fill-opacity="0" stroke="#FF4081" stroke-width="11"/>
      <path d="M271.005,182.855 C271.005,133.702 231.159,93.856 182.006,93.856 C132.853,93.856 93.007,133.702 93.007,182.855 C93.007,232.008 132.853,271.854 182.006,271.854 C231.159,271.854 271.005,232.008 271.005,182.855 z" fill-opacity="0" stroke="#FF4081" stroke-width="11"/>
      <path d="M360.625,182.855 C360.625,281.504 280.654,361.475 182.005,361.475 C83.356,361.475 3.385,281.504 3.385,182.855 C3.385,84.206 83.356,4.235 182.005,4.235 C280.654,4.235 360.625,84.206 360.625,182.855 z" fill-opacity="0" stroke="#FF4081" stroke-width="11"/>
      <path d="M2.715,182.765 L361.285,182.765 L2.715,182.765 z" fill-opacity="0" stroke="#FF4081" stroke-width="11"/>
      <path d="M182.005,2.525 L182.005,361.095 L182.005,2.525 z" fill-opacity="0" stroke="#FF4081" stroke-width="11"/>
      <path d="M60.105,216.635 C84.681,174.07 139.108,159.486 181.675,184.059 C224.24,208.635 238.824,263.062 214.251,305.629 C189.675,348.194 135.247,362.778 92.681,338.205 C50.116,313.629 35.532,259.201 60.105,216.635 z" fill-opacity="0" stroke="#FF4081" stroke-width="11"/>
      <path d="M149.755,61.375 C125.182,103.941 139.766,158.369 182.331,182.945 C224.897,207.518 279.325,192.934 303.901,150.369 C328.474,107.802 313.89,53.375 271.325,28.799 C228.758,4.226 174.331,18.81 149.755,61.375 z" fill-opacity="0" stroke="#FF4081" stroke-width="11"/>
      <path d="M26.785,93.135 L337.315,272.425 L26.785,93.135 z" fill-opacity="0" stroke="#FF4081" stroke-width="11"/>
      <path d="M272.175,26.685 L92.885,337.215 L272.175,26.685 z" fill-opacity="0" stroke="#FF4081" stroke-width="11"/>
      <path d="M92.445,27.525 L271.735,338.055 L92.445,27.525 z" fill-opacity="0" stroke="#FF4081" stroke-width="11"/>
      <path d="M338.185,92.665 L27.655,271.955 L338.185,92.665 z" fill-opacity="0" stroke="#FF4081" stroke-width="11"/>
    </g>
  </g>
</svg>
